Coordinates
version=1
nRows=22
nColumns=24
inDegrees=yes

Units are S.I. units (second, meters, Newtons, ...)
Angles are in degrees.

endheader
time	pelvis_tilt	pelvis_list	pelvis_rotation	pelvis_tx	pelvis_ty	pelvis_tz	hip_flexion_r	hip_adduction_r	hip_rotation_r	knee_angle_r	ankle_angle_r	subtalar_angle_r	mtp_angle_r	hip_flexion_l	hip_adduction_l	hip_rotation_l	knee_angle_l	ankle_angle_l	subtalar_angle_l	mtp_angle_l	lumbar_extension	lumbar_bending	lumbar_rotation
      1.00000000	      5.21103472	      0.07409464	      0.37673832	      0.59325973	      1.04489816	      0.04531588	     -3.15649238	      1.77063552	     -3.78566508	    -11.51542160	      7.92528437	     -0.00450653	      0.00000000	     18.36667824	     -2.90204430	     -4.08231637	    -57.75271214	      1.46856135	     -0.03125996	      0.00000000	    -16.34029973	      1.68370076	      0.71230193
      1.01666667	      5.27573524	      0.04393137	      0.12615987	      0.59135937	      1.04482359	      0.04641740	     -4.64616068	      1.89726979	     -3.58129033	    -10.75031505	      8.31255615	     -0.00500940	      0.00000000	     19.05012197	     -2.93251731	     -4.50229304	    -53.50594325	      1.72775734	     -0.02574318	      0.00000000	    -16.49932807	      1.55996693	      1.05126426
      1.03333333	      5.31436546	     -0.15888546	     -0.04284870	      0.58938363	      1.04432680	      0.04757946	     -6.19056814	      2.21601730	     -3.48189378	     -9.82428461	      8.61456646	      0.01320739	      0.00000000	     19.54996149	     -3.28807553	     -5.21397364	    -48.74477604	      1.68580372	     -0.00942640	      0.00000000	    -16.66211810	      1.65432716	      1.36003956
      1.05000000	      5.47702476	     -0.48479411	     -0.15612044	      0.58745443	      1.04366857	      0.04829112	     -7.85058370	      2.63381358	     -3.40640775	     -8.95437348	      8.90459548	      0.00929680	      0.00000000	     19.67431567	     -3.78857226	     -6.20868154	    -43.48484611	      1.35008547	      0.00400607	      0.00000000	    -17.01068138	      1.87181502	      1.47461710
      1.06666667	      5.31423368	     -1.05193947	     -0.44014335	      0.58535876	      1.04191143	      0.04914653	     -9.05749277	      3.26132425	     -3.09120918	     -8.27807543	      9.25109037	      0.01056784	      0.00000000	     19.98812810	     -4.55004756	     -7.47120097	    -37.98360137	      0.81591588	      0.01663280	      0.00000000	    -16.83206135	      2.37786115	      1.96851978
      1.08333333	      5.27132101	     -1.44914953	     -0.68934219	      0.58367106	      1.04005100	      0.04941646	    -10.48537112	      3.65071881	     -2.64205443	     -7.50181103	      9.60167557	      0.01508021	      0.00000000	     19.88953263	     -4.95724234	     -8.80789422	    -32.07282692	      0.05310439	      0.00440167	      0.00000000	    -16.94103735	      2.58835979	      2.14987109
      1.10000000	      5.10307463	     -2.00977508	     -0.94517903	      0.58237836	      1.03758414	      0.04990948	    -11.85689854	      4.20945983	     -2.17139383	     -6.65304477	      9.88223882	      0.00288542	      0.00000000	     19.90552339	     -5.39000913	     -9.79919292	    -26.32815197	     -0.63617007	      0.01693870	      0.00000000	    -16.78270580	      3.05385814	      2.54796574
      1.11666667	      4.90688339	     -2.48490980	     -1.17482354	      0.58108284	      1.03478416	      0.05010109	    -13.07047931	      4.65161866	     -1.59575608	     -6.11385914	     10.32650208	     -0.00051793	      0.00000000	     19.81163184	     -5.51608008	    -10.15728032	    -20.51908673	     -1.24116777	     -0.00676878	      0.00000000	    -16.68021949	      3.41968802	      2.54067882
      1.13333333	      4.68476907	     -3.04019793	     -1.67321894	      0.57949428	      1.03160753	      0.05011106	    -14.10007002	      5.06490882	     -0.71491032	     -5.88767315	     10.89282273	     -0.04998217	      0.00000000	     19.75203051	     -5.71520504	     -9.99365069	    -15.13276491	     -1.53521311	      0.00993204	      0.00000000	    -16.56236677	      3.76083459	      3.11063052
      1.15000000	      4.79124841	     -3.54482811	     -1.88031866	      0.57870368	      1.02874362	      0.04958630	    -15.57569723	      5.44008571	     -0.13390597	     -5.54148125	     11.35243812	     -0.01100309	      0.00000000	     19.18129354	     -5.74035256	     -8.94625049	     -9.96568748	     -1.62147174	      0.00307825	      0.00000000	    -16.72330887	      4.19092268	      3.38403146
      1.16666667	      4.73518410	     -3.87820398	     -2.24463469	      0.57830141	      1.02544308	      0.04945373	    -16.92353637	      5.60088545	      0.46729202	     -5.16559401	     11.79875793	     -0.06084661	      0.00000000	     18.83894075	     -5.75827500	     -7.75201568	     -5.75085884	     -1.41593719	      0.00477613	      0.00000000	    -16.80931215	      4.19758046	      3.30925329
      1.18333333	      4.86135202	     -4.21440030	     -2.82310711	      0.57777753	      1.02259723	      0.04907867	    -18.20541759	      5.61551110	      1.18530609	     -5.30944559	     12.34317043	     -0.04108294	      0.00000000	     18.27033597	     -5.90071589	     -6.79007389	     -2.43157861	     -1.12139688	      0.01943136	      0.00000000	    -16.94666824	      4.30681695	      4.02804600
      1.20000000	      4.72886889	     -4.35772694	     -3.02958998	      0.57799920	      1.01949726	      0.04853322	    -19.29521458	      5.56233072	      1.46950750	     -5.30887142	     12.70539811	     -0.02864816	      0.00000000	     18.41269225	     -5.84566099	     -5.70106922	     -0.94408163	     -0.54621123	      0.02407143	      0.00000000	    -16.81790684	      4.12558647	      3.64768372
      1.21666667	      4.88926277	     -4.44777132	     -3.31688949	      0.57761146	      1.01732485	      0.04776288	    -20.27033557	      5.37645302	      1.85643467	     -6.07581672	     13.20526526	     -0.00289591	      0.00000000	     18.33579052	     -5.77389285	     -4.94936472	     -0.60083506	     -0.33855355	      0.01208532	      0.00000000	    -17.07879647	      3.86476673	      3.85431312
      1.23333333	      4.93982748	     -4.38355801	     -3.63104139	      0.57794191	      1.01541366	      0.04672838	    -21.01144230	      5.01352984	      2.32335224	     -7.08280254	     13.59747257	     -0.08400817	      0.00000000	     18.48587327	     -5.56452851	     -4.42208839	     -1.51946502	     -0.35451498	      0.01467978	      0.00000000	    -17.06604473	      3.39933431	      3.67636222
      1.25000000	      4.93294933	     -4.15097795	     -4.23994527	      0.57947739	      1.01408397	      0.04508931	    -21.56179966	      4.30662356	      2.92816625	     -8.42825569	     13.91264532	     -0.02279825	      0.00000000	     18.64836488	     -5.22850969	     -4.34612357	     -3.29454836	     -0.82034644	     -0.05779808	      0.00000000	    -16.89330522	      2.84775418	      3.98655377
      1.26666667	      4.77846265	     -3.91283610	     -4.27613952	      0.58155368	      1.01268661	      0.04319422	    -21.72026319	      3.85582998	      3.00899502	    -10.27013770	     14.17109257	      0.04137363	      0.00000000	     19.31783060	     -4.78321117	     -3.86967749	     -6.08336206	     -1.45225383	      0.00789187	      0.00000000	    -16.42157107	      2.31863824	      3.76002870
      1.28333333	      4.57822385	     -4.01004385	     -4.52367423	      0.58251864	      1.01176613	      0.04185498	    -21.37039431	      3.71988737	      3.33451914	    -12.90035504	     14.20893259	      0.06434080	      0.00000000	     19.79544081	     -4.79194642	     -3.64912496	     -8.52230128	     -2.63115425	     -0.04730880	      0.00000000	    -16.21392019	      1.99869987	      3.78430686
      1.30000000	      4.44499911	     -3.84893836	     -4.73018443	      0.58501918	      1.01149958	      0.04025619	    -21.15038275	      3.30316118	      3.47485273	    -15.43100450	     13.71944037	      0.06025120	      0.00000000	     20.19801261	     -4.55667996	     -3.63808700	    -11.23076236	     -3.44808799	     -0.00899889	      0.00000000	    -15.80926986	      1.31541373	      3.63169761
      1.31666667	      4.59207179	     -3.56218656	     -4.89801598	      0.58806561	      1.01215327	      0.03843541	    -20.67804061	      2.75968237	      3.46911192	    -18.96110889	     12.89347091	      0.03767779	      0.00000000	     20.12670832	     -4.18178437	     -3.80434178	    -13.73130032	     -3.93908366	      0.03199988	      0.00000000	    -15.64942810	      0.55158637	      3.29291440
      1.33333333	      4.77494330	     -3.31406027	     -4.96847623	      0.59118619	      1.01329273	      0.03638106	    -19.70985699	      2.27354610	      3.19749313	    -23.34985477	     11.53116771	      0.05604948	      0.00000000	     19.82787111	     -3.81220451	     -3.87287887	    -15.94713361	     -4.02248759	     -0.01148156	      0.00000000	    -15.47587841	     -0.14236558	      3.07599136
      1.35000000	      5.20039901	     -2.94206089	     -4.87728613	      0.59452685	      1.01519449	      0.03378596	    -18.46359673	      1.59927799	      2.33308580	    -28.45144149	      9.25966426	      0.04203691	      0.00000000	     19.01936485	     -3.23492189	     -3.91183337	    -17.74851947	     -3.75110654	      0.01492367	      0.00000000	    -15.51794025	     -0.87200774	      2.73404947
